name D:\school\WTK\thesis\model\3dpredictsim\Results\batch_windlass\Pog_s1_tmt_aCst_d05_k500_WL30_ig24.mot
datacolumns 128
datarows 4
range 1.06294339 1.09483169
endheader
time	pelvis_tilt	pelvis_list	pelvis_rotation	pelvis_tx	pelvis_ty	pelvis_tz	hip_flexion_l	hip_adduction_l	hip_rotation_l	hip_flexion_r	hip_adduction_r	hip_rotation_r	knee_angle_l	knee_angle_r	ankle_angle_l	ankle_angle_r	subtalar_angle_l	subtalar_angle_r	tmt_angle_l	tmt_angle_r	mtp_angle_l	mtp_angle_r	lumbar_extension	lumbar_bending	lumbar_rotation	arm_flex_l	arm_add_l	arm_rot_l	arm_flex_r	arm_add_r	arm_rot_r	elbow_flex_l	elbow_flex_r	pro_sup_l	pro_sup_r	glut_med1_l/activation	glut_med2_l/activation	glut_med3_l/activation	glut_min1_l/activation	glut_min2_l/activation	glut_min3_l/activation	semimem_l/activation	semiten_l/activation	bifemlh_l/activation	bifemsh_l/activation	sar_l/activation	add_long_l/activation	add_brev_l/activation	add_mag1_l/activation	add_mag2_l/activation	add_mag3_l/activation	tfl_l/activation	pect_l/activation	grac_l/activation	glut_max1_l/activation	glut_max2_l/activation	glut_max3_l/activation	iliacus_l/activation	psoas_l/activation	quad_fem_l/activation	gem_l/activation	peri_l/activation	rect_fem_l/activation	vas_med_l/activation	vas_int_l/activation	vas_lat_l/activation	med_gas_l/activation	lat_gas_l/activation	soleus_l/activation	tib_post_l/activation	flex_dig_l/activation	flex_hal_l/activation	tib_ant_l/activation	per_brev_l/activation	per_long_l/activation	per_tert_l/activation	ext_dig_l/activation	ext_hal_l/activation	ercspn_l/activation	intobl_l/activation	extobl_l/activation	glut_med1_r/activation	glut_med2_r/activation	glut_med3_r/activation	glut_min1_r/activation	glut_min2_r/activation	glut_min3_r/activation	semimem_r/activation	semiten_r/activation	bifemlh_r/activation	bifemsh_r/activation	sar_r/activation	add_long_r/activation	add_brev_r/activation	add_mag1_r/activation	add_mag2_r/activation	add_mag3_r/activation	tfl_r/activation	pect_r/activation	grac_r/activation	glut_max1_r/activation	glut_max2_r/activation	glut_max3_r/activation	iliacus_r/activation	psoas_r/activation	quad_fem_r/activation	gem_r/activation	peri_r/activation	rect_fem_r/activation	vas_med_r/activation	vas_int_r/activation	vas_lat_r/activation	med_gas_r/activation	lat_gas_r/activation	soleus_r/activation	tib_post_r/activation	flex_dig_r/activation	flex_hal_r/activation	tib_ant_r/activation	per_brev_r/activation	per_long_r/activation	per_tert_r/activation	ext_dig_r/activation	ext_hal_r/activation	ercspn_r/activation	intobl_r/activation	extobl_r/activation	
          1.06294339	         -2.92503543	         -1.32170009	          5.34061322	          1.32867924	          0.86104459	         -0.00128889	        -17.14219550	         -1.09915692	          7.90431868	         31.37378791	          1.89766776	         -2.74512107	        -10.02238042	        -18.76395920	         -0.25555394	          1.63152121	         12.88264740	          2.28065478	         -7.26871888	         -0.12088039	         27.91235094	          0.51736954	         -0.96177909	         -0.35299882	         -1.68850987	          4.13828428	        -13.46169217	         14.30312376	         -9.10465501	        -13.57336771	          6.21283460	         34.72191513	         18.80340486	         86.51662706	         86.51662706	          0.31434047	          0.08904840	          0.05000063	          0.30554868	          0.19798554	          0.09081071	          0.05000247	          0.05000021	          0.05000015	          0.06928331	          0.07712058	          0.08883140	          0.05000037	          0.05000036	          0.05000109	          0.05000151	          0.25407790	          0.05000178	          0.05000039	          0.05000178	          0.05000128	          0.05000094	          0.28323994	          0.48168738	          0.05000011	          0.05000041	          0.05000008	          0.21076121	          0.08345218	          0.08701195	          0.07798260	          0.27122578	          0.34718568	          0.22762815	          0.19314700	          0.17972296	          0.24965395	          0.05000000	          0.12526273	          0.18331439	          0.05000006	          0.05000001	          0.05000005	          0.05000000	          0.05000007	          0.05000002	          0.05000050	          0.05000032	          0.05885793	          0.05000011	          0.05000016	          0.05000134	          0.05885732	          0.05885816	          0.06928484	          0.05000420	          0.05000059	          0.08438674	          0.12709104	          0.13137326	          0.13735052	          0.12168049	          0.05012665	          0.05001349	          0.05885839	          0.05885827	          0.06507604	          0.11583824	          0.05726402	          0.06020358	          0.21649312	          0.05000023	          0.05000055	          0.05000039	          0.10615483	          0.11515957	          0.09120235	          0.07628680	          0.07109804	          0.05000002	          0.05000041	          0.05885810	          0.05885833	          0.44040013	          0.30878281	          0.17481249	          0.11030934	          0.51308559	          0.12935029	          0.05005226	          0.11006952	          0.12340736	
          1.07357282	         -2.91563057	         -1.39970699	          5.59113354	          1.34488914	          0.86009936	         -0.00110136	        -16.95538426	         -1.36754245	          7.67733454	         30.77169212	          2.27528907	         -2.53329141	        -11.89542555	        -18.35476635	         -1.21109829	          1.20975234	         13.79501300	          1.74525601	         -7.99418503	         -0.14932832	         28.86826385	          0.64854000	         -0.75624768	         -0.12260854	         -1.75766442	          3.90468585	        -13.48560086	         14.64884012	        -10.09730580	        -13.56949224	          5.99130117	         35.64885944	         18.69832121	         86.51662706	         86.51662706	          0.26703369	          0.07564700	          0.05000002	          0.25956497	          0.16818958	          0.07714410	          0.05000076	          0.05000009	          0.05000006	          0.05885650	          0.06551436	          0.13114019	          0.18902399	          0.05000781	          0.05000103	          0.05000025	          0.21584034	          0.09686457	          0.05000055	          0.05000043	          0.05000028	          0.05000023	          0.24061356	          0.42842404	          0.05000004	          0.05000019	          0.05000013	          0.17904256	          0.13246092	          0.07392215	          0.11538100	          0.23040743	          0.29493569	          0.19337106	          0.16407921	          0.15267551	          0.21208213	          0.05142268	          0.10641125	          0.15572638	          0.05000021	          0.11187538	          0.05000027	          0.05000001	          0.05886406	          0.07514161	          0.05885782	          0.05885786	          0.05000012	          0.05885796	          0.05885792	          0.05883190	          0.05000017	          0.05000031	          0.05885801	          0.05000008	          0.05000055	          0.09600819	          0.23417862	          0.11160230	          0.14200068	          0.13784177	          0.05000009	          0.08149626	          0.05000067	          0.05000043	          0.05528240	          0.16254073	          0.05885788	          0.05236815	          0.36094672	          0.15699630	          0.10880055	          0.06684967	          0.20541446	          0.20279744	          0.17182458	          0.06480598	          0.06039819	          0.05982179	          0.05000002	          0.05000030	          0.05000060	          0.57954362	          0.26231242	          0.14850398	          0.46849894	          0.58963071	          0.26628038	          0.05000002	          0.09350452	          0.10483507	
          1.08420226	         -2.90203662	         -1.48462985	          5.81794499	          1.36133605	          0.85893020	         -0.00091598	        -16.69373559	         -1.62705025	          7.43027922	         30.03623884	          2.63514354	         -2.25541282	        -13.93202948	        -18.49394295	         -2.19210939	          0.73604379	         14.63556844	          1.16855712	         -8.57944651	         -0.21694263	         29.33354881	          0.80644862	         -0.53527639	          0.12121676	         -1.81844390	          3.60827220	        -13.52139441	         14.94712694	        -11.08615440	        -13.57406565	          5.83675613	         36.56235206	         18.57842761	         86.51662706	         86.51662706	          0.22684627	          0.06426246	          0.05000019	          0.22050158	          0.14287779	          0.06553427	          0.05780001	          0.05000053	          0.05885732	          0.05000003	          0.05565480	          0.19849619	          0.33352036	          0.20835995	          0.08347803	          0.13308588	          0.18335736	          0.08228712	          0.05000115	          0.05003383	          0.05867326	          0.05885798	          0.20440225	          0.39145952	          0.05885772	          0.05862490	          0.05000020	          0.15209742	          0.11252643	          0.14168074	          0.09801685	          0.19573208	          0.25054911	          0.16426953	          0.13938600	          0.12969855	          0.18016471	          0.14458701	          0.09039693	          0.14733878	          0.05000026	          0.19985591	          0.07894502	          0.06016446	          0.06771176	          0.06928498	          0.05000002	          0.05000007	          0.13874961	          0.05000010	          0.05000008	          0.05000007	          0.05000009	          0.05000013	          0.05000020	          0.05000004	          0.05000027	          0.08155942	          0.19893593	          0.32297001	          0.26205462	          0.15977030	          0.05000029	          0.06927103	          0.10245358	          0.10869795	          0.12362588	          0.14032255	          0.05000008	          0.05000016	          0.34350130	          0.13336905	          0.09242656	          0.05885791	          0.26396234	          0.26026382	          0.22098944	          0.05885813	          0.05885766	          0.05836756	          0.05000003	          0.05000504	          0.05000036	          0.53846502	          0.23024189	          0.13305411	          0.44225517	          0.53697868	          0.22620636	          0.05000000	          0.07943249	          0.08905784	
          1.09483169	         -2.88577942	         -1.58137057	          6.01822209	          1.37788017	          0.85755663	         -0.00074951	        -16.33178564	         -1.87471058	          7.17573882	         29.10576773	          2.95520248	         -1.93299828	        -16.17731177	        -18.82564400	         -3.13038602	          0.67028922	         15.37874495	          0.54748001	         -8.84903363	         -0.58306288	         28.94035551	          0.83835526	         -0.31009079	          0.38287852	         -1.86741925	          3.27101333	        -13.56363823	         15.20317243	        -12.03792054	        -13.59353534	          5.78323135	         37.45547808	         18.41651025	         86.51662706	         86.51662706	          0.25481972	          0.05459125	          0.05000001	          0.23639540	          0.12137540	          0.05567170	          0.08184158	          0.05000023	          0.05000012	          0.05000052	          0.05888294	          0.16862341	          0.28332699	          0.17700269	          0.07091505	          0.11305706	          0.24213638	          0.06990347	          0.05000041	          0.05000035	          0.05000022	          0.05000026	          0.18531930	          0.38407770	          0.05000003	          0.05000010	          0.05000006	          0.12920741	          0.09559169	          0.12035840	          0.08326574	          0.16627523	          0.21284253	          0.13954766	          0.11840903	          0.11017956	          0.15305076	          0.20099547	          0.13975855	          0.14665130	          0.20672703	          0.25182750	          0.08156225	          0.09113509	          0.05752143	          0.05885789	          0.29283038	          0.34155731	          0.46691761	          0.37538592	          0.25085100	          0.37483011	          0.07857430	          0.09622394	          0.08426308	          0.06928493	          0.05000059	          0.06928510	          0.16899694	          0.27436443	          0.22261660	          0.14425904	          0.05000015	          0.05885767	          0.08704239	          0.24689912	          0.18993107	          0.12201449	          0.05025281	          0.05000025	          0.29180584	          0.11329769	          0.25737491	          0.05000006	          0.26865077	          0.28600144	          0.23567383	          0.05000026	          0.05000014	          0.05368288	          0.05000014	          0.05000027	          0.05000060	          0.64246130	          0.19559146	          0.11303003	          0.44116418	          0.57628482	          0.32875497	          0.05598696	          0.08155981	          0.07565501	
